<?xml version="1.0" encoding="UTF-8" standalone="no"?>
<svg
   fill="none"
   viewBox="0 0 21 21"
   stroke-width="1.5"
   stroke="currentColor"
   class="w-6 h-6"
   version="1.1"
   id="svg4042"
   sodipodi:docname="phone-white.svg"
   width="21"
   height="21"
   inkscape:version="1.2 (dc2aedaf03, 2022-05-15)"
   xmlns:inkscape="http://www.inkscape.org/namespaces/inkscape"
   xmlns:sodipodi="http://sodipodi.sourceforge.net/DTD/sodipodi-0.dtd"
   xmlns="http://www.w3.org/2000/svg"
   xmlns:svg="http://www.w3.org/2000/svg">
  <defs
     id="defs4046" />
  <sodipodi:namedview
     id="namedview4044"
     pagecolor="#ffffff"
     bordercolor="#666666"
     borderopacity="1.0"
     inkscape:showpageshadow="2"
     inkscape:pageopacity="0.0"
     inkscape:pagecheckerboard="0"
     inkscape:deskcolor="#d1d1d1"
     showgrid="false"
     inkscape:zoom="35.625"
     inkscape:cx="2.2596491"
     inkscape:cy="10.540351"
     inkscape:window-width="1350"
     inkscape:window-height="1032"
     inkscape:window-x="36"
     inkscape:window-y="0"
     inkscape:window-maximized="0"
     inkscape:current-layer="svg4042" />
  <path
     stroke-linecap="round"
     stroke-linejoin="round"
     d="m 0.75,5.25 c 0,8.284 6.716,15 15,15 H 18 A 2.25,2.25 0 0 0 20.25,18 v -1.372 c 0,-0.516 -0.351,-0.966 -0.852,-1.091 l -4.423,-1.106 c -0.44,-0.11 -0.902,0.055 -1.173,0.417 l -0.97,1.293 c -0.282,0.376 -0.769,0.542 -1.21,0.38 A 12.035,12.035 0 0 1 4.479,9.378 C 4.317,8.937 4.483,8.45 4.859,8.168 L 6.152,7.198 C 6.515,6.927 6.679,6.464 6.569,6.025 L 5.463,1.602 A 1.125,1.125 0 0 0 4.372,0.75 H 3 A 2.25,2.25 0 0 0 0.75,3 Z"
     id="path4040"
     style="fill:none;stroke:#ffffff;stroke-opacity:1" />
</svg>
