<?xml version="1.0" encoding="UTF-8" standalone="no"?>
<svg
   width="120"
   height="89"
   version="1.1"
   id="svg4"
   sodipodi:docname="acts_435.svg"
   inkscape:version="1.2 (dc2aedaf03, 2022-05-15)"
   xmlns:inkscape="http://www.inkscape.org/namespaces/inkscape"
   xmlns:sodipodi="http://sodipodi.sourceforge.net/DTD/sodipodi-0.dtd"
   xmlns="http://www.w3.org/2000/svg"
   xmlns:svg="http://www.w3.org/2000/svg">
  <defs
     id="defs8" />
  <sodipodi:namedview
     id="namedview6"
     pagecolor="#ffffff"
     bordercolor="#666666"
     borderopacity="1.0"
     inkscape:showpageshadow="2"
     inkscape:pageopacity="0.0"
     inkscape:pagecheckerboard="0"
     inkscape:deskcolor="#d1d1d1"
     showgrid="false"
     inkscape:zoom="9.3146067"
     inkscape:cx="51.531966"
     inkscape:cy="44.553679"
     inkscape:window-width="1920"
     inkscape:window-height="1009"
     inkscape:window-x="-8"
     inkscape:window-y="-8"
     inkscape:window-maximized="1"
     inkscape:current-layer="svg4" />
  <path
     d="M40.194 64.19V53.747L36.625 64.19h3.569zM72.567.728v14.24h4.628v4.127h-4.628v24.45h-4.42v-24.45h-4.583v-4.128h4.583V.293a97.114 97.114 0 00-8.602-.286C26.475.406-6.369 17.454 1.062 44.477c5.504 20.01 28.925 44.031 58.481 44.387 30.192.364 54.02-24.183 59.425-44.473 6.371-23.921-17.689-40.135-46.4-43.663zM47.01 67.952h-2.68v6.963h-4.136v-6.963h-7.34V64.19l7.34-17.852h4.136V64.19h2.68v3.762zm-3.531-24.407l-.891-6.193h-4.463l-.933 6.193h-4.337l4.703-28.578h5.76l4.706 28.578h-4.545zm11.662 31.94c-3.975 0-6.49-2.794-6.49-8.098v-.728h4.177v1.174c0 2.428.61 3.603 2.07 3.603 1.742 0 2.351-1.335 2.351-4.088 0-3.724-.768-5.263-3.65-5.263h-.566v-4.007h.689c2.352 0 3.123-1.497 3.123-4.453 0-2.51-.527-3.722-1.865-3.722-1.501 0-2.068.97-2.068 3.115 0 .326 0 .688.04 1.093h-4.177v-.241c0-5.182 2.39-8.057 6.205-8.057 3.85 0 5.759 2.71 5.759 8.095 0 3.158-.65 5.1-2.475 6.152 2.354 1.134 3.003 3.158 3.003 6.761 0 5.75-2.233 8.664-6.126 8.664zm7.212-51.047h-4.542v-3.157c0-1.982-.772-2.954-2.271-2.954-1.501 0-2.273.972-2.273 2.954V37.23c0 1.982.772 2.997 2.273 2.997 1.5 0 2.27-1.015 2.27-2.997v-3.886h4.543v2.996c0 5.059-2.513 7.81-6.813 7.81-4.464 0-6.777-2.71-6.777-7.932V21.565c0-4.453 2.555-7.205 6.938-7.205 4.015 0 6.652 2.713 6.652 7.326v2.752zm13.284 44.166c0 4.328-2.476 6.92-6.328 6.92-3.894 0-5.965-2.63-5.965-7.732v-.85h3.976V68.4c0 2.145.731 3.238 2.272 3.238 1.256 0 2.028-.972 2.028-2.832v-7.287c0-1.579-.525-2.35-1.866-2.35-1.136 0-1.988.81-2.434 2.308l-3.609-.16.488-14.979h10.787l.164 4.13h-7.464l-.366 6.719c1.298-1.255 2.636-1.862 3.975-1.862 2.636 0 4.342 1.983 4.342 6.03v7.249zm9.506-24.411c-4.299 0-7.097-2.876-7.302-7.894l4.221-.648c.163 2.875 1.054 4.249 2.918 4.249 1.623 0 2.72-1.092 2.72-2.751 0-2.388-1.624-3.844-3.975-6.195-3.205-3.196-5.477-5.544-5.477-9.308 0-4.129 3.121-7.166 6.856-7.166 3.65 0 6.286 2.632 6.61 7.085l-4.298.608c-.163-2.47-.813-3.564-2.436-3.564-1.378 0-2.353 1.014-2.353 2.63 0 2.593 1.908 4.332 4.423 6.761 3.042 2.954 4.95 5.1 4.95 9.066 0 4.213-2.922 7.127-6.857 7.127zM40.274 21.362l-1.582 11.943h3.37l-1.503-11.943h-.285z"
     fill="#0097DB"
     fill-rule="evenodd"
     id="path2" />
</svg>
