<?xml version="1.0" encoding="UTF-8" standalone="no"?>
<svg
   fill="none"
   viewBox="0 0 21 16.5"
   stroke-width="1.5"
   stroke="currentColor"
   class="w-6 h-6"
   version="1.1"
   id="svg3187"
   sodipodi:docname="envelope-white.svg"
   width="21"
   height="16.5"
   inkscape:version="1.2 (dc2aedaf03, 2022-05-15)"
   xmlns:inkscape="http://www.inkscape.org/namespaces/inkscape"
   xmlns:sodipodi="http://sodipodi.sourceforge.net/DTD/sodipodi-0.dtd"
   xmlns="http://www.w3.org/2000/svg"
   xmlns:svg="http://www.w3.org/2000/svg">
  <defs
     id="defs3191" />
  <sodipodi:namedview
     id="namedview3189"
     pagecolor="#ffffff"
     bordercolor="#666666"
     borderopacity="1.0"
     inkscape:showpageshadow="2"
     inkscape:pageopacity="0.0"
     inkscape:pagecheckerboard="0"
     inkscape:deskcolor="#d1d1d1"
     showgrid="false"
     inkscape:zoom="35.625"
     inkscape:cx="3.6631579"
     inkscape:cy="8.2666667"
     inkscape:window-width="1350"
     inkscape:window-height="1032"
     inkscape:window-x="150"
     inkscape:window-y="0"
     inkscape:window-maximized="0"
     inkscape:current-layer="svg3187" />
  <path
     stroke-linecap="round"
     stroke-linejoin="round"
     d="M 20.25,3 V 13.5 A 2.25,2.25 0 0 1 18,15.75 H 3 A 2.25,2.25 0 0 1 0.75000001,13.5 V 3 M 20.25,3 A 2.25,2.25 0 0 0 18,0.75 H 3 A 2.25,2.25 0 0 0 0.75000001,3 M 20.25,3 v 0.243 a 2.25,2.25 0 0 1 -1.07,1.916 l -7.5,4.615 a 2.25,2.25 0 0 1 -2.36,0 L 1.82,5.16 A 2.25,2.25 0 0 1 0.75000001,3.244 V 3"
     id="path3185"
     style="stroke:#fffdfd;stroke-opacity:1" />
</svg>
